# xmcd
#
# Track frame offsets:
#	150
#	61033
#	109191
#	165911
#	220225
#
# Disc length: 3553 seconds
#
# Revision: 1
# Processed by: cddbd v1.5.2PL0 Copyright (c) Steve Scherf et al.
# Submitted via: audiograbber 1.83.01
#
DISCID=380ddf05
DTITLE=Grateful Dead - 79-09-05 Madison Square Garden, New York NY
DYEAR=1900
DGENRE=
TTITLE0=Scarlet Begonias
TTITLE1=Fire On The Mountain
TTITLE2=Estimated Prophet
TTITLE3=Eyes Of The World
TTITLE4=Drums
EXTD=
EXTT0=
EXTT1=
EXTT2=
EXTT3=
EXTT4=
PLAYORDER=
